<svg width="91" height="102" viewBox="0 0 91 102" fill="none" xmlns="http://www.w3.org/2000/svg">
<path d="M41 46.7494C43.7614 46.7494 46 44.5108 46 41.7494V16.7326C46 13.7231 43.3467 11.3732 40.4439 12.1674C38.831 12.6087 37.244 13.1516 35.6927 13.7942C30.8396 15.8044 26.4301 18.7508 22.7157 22.4651C19.0014 26.1795 16.055 30.589 14.0448 35.442C12.0346 40.2951 11 45.4965 11 50.7494C11 57.0618 12.494 63.2846 15.3597 68.909C17.4665 73.0438 20.2708 76.7689 23.6374 79.9262C25.6517 81.8152 26.1728 84.9211 24.5497 87.1552C22.9265 89.3892 19.78 89.9021 17.7192 88.0641C13.0991 83.9435 9.2733 78.9906 6.44967 73.4489C2.86745 66.4184 1 58.6399 1 50.7494C1 44.1833 2.29329 37.6815 4.80602 31.6152C7.31876 25.5489 11.0017 20.037 15.6447 15.394C20.2876 10.7511 25.7995 7.06814 31.8658 4.55541C36.3866 2.68286 41.1492 1.48754 46 1.00001L56 1C62.1568 1.61878 68.1603 3.37669 73.6995 6.19905C79.2412 9.02268 84.1941 12.8485 88.3147 17.4685C90.1527 19.5294 89.6398 22.6759 87.4058 24.299C85.1717 25.9222 82.0659 25.401 80.1769 23.3868C77.0196 20.0202 73.2944 17.2159 69.1596 15.1091C66.7236 13.8679 64.1753 12.884 61.5561 12.1674C58.6533 11.3732 56 13.7231 56 16.7326V41.7494C56 44.5108 58.2386 46.7494 61 46.7494H71C73.7614 46.7494 76 48.988 76 51.7494C76 54.5108 73.7614 56.7494 71 56.7494H61C58.2386 56.7494 56 58.988 56 61.7494V84.7662C56 87.7756 58.6533 90.1256 61.5561 89.3314C64.1753 88.6147 66.7236 87.6309 69.1596 86.3896C73.2944 84.2828 77.0196 81.4786 80.1769 78.112C82.0659 76.0977 85.1717 75.5766 87.4058 77.1997C89.6398 78.8228 90.1527 81.9694 88.3147 84.0302C84.1941 88.6503 79.2412 92.4761 73.6995 95.2997C68.1603 98.1221 62.1568 99.88 56 100.499H51C48.2386 100.499 46 98.2602 46 95.4988V61.7494C46 58.988 43.7614 56.7494 41 56.7494H31C28.2386 56.7494 26 54.5108 26 51.7494C26 48.988 28.2386 46.7494 31 46.7494H41Z" fill="#24292F" stroke="#24292F" stroke-width="2"/>
</svg>
