<svg width="150" height="150" viewBox="0 0 150 150" fill="none" xmlns="http://www.w3.org/2000/svg">
<rect width="150" height="150" rx="20" fill="white"/>
<path d="M70 70.7494C72.7614 70.7494 75 68.5108 75 65.7494V40.7326C75 37.7231 72.3467 35.3732 69.4439 36.1674C67.831 36.6087 66.244 37.1516 64.6927 37.7942C59.8396 39.8044 55.4301 42.7508 51.7157 46.4651C48.0014 50.1795 45.055 54.589 43.0448 59.442C41.0346 64.2951 40 69.4965 40 74.7494C40 81.0618 41.494 87.2846 44.3597 92.909C46.4665 97.0438 49.2708 100.769 52.6374 103.926C54.6517 105.815 55.1728 108.921 53.5497 111.155C51.9265 113.389 48.78 113.902 46.7192 112.064C42.0991 107.943 38.2733 102.991 35.4497 97.4489C31.8675 90.4184 30 82.6399 30 74.7494C30 68.1833 31.2933 61.6815 33.806 55.6152C36.3188 49.5489 40.0017 44.037 44.6447 39.394C49.2876 34.7511 54.7995 31.0681 60.8658 28.5554C65.3866 26.6829 70.1492 25.4875 75 25L85 25C91.1568 25.6188 97.1603 27.3767 102.7 30.1991C108.241 33.0227 113.194 36.8485 117.315 41.4685C119.153 43.5294 118.64 46.6759 116.406 48.299C114.172 49.9222 111.066 49.401 109.177 47.3868C106.02 44.0202 102.294 41.2159 98.1596 39.1091C95.7236 37.8679 93.1753 36.884 90.5561 36.1674C87.6533 35.3732 85 37.7231 85 40.7326V65.7494C85 68.5108 87.2386 70.7494 90 70.7494H100C102.761 70.7494 105 72.988 105 75.7494C105 78.5108 102.761 80.7494 100 80.7494H90C87.2386 80.7494 85 82.988 85 85.7494V108.766C85 111.776 87.6533 114.126 90.5561 113.331C93.1753 112.615 95.7236 111.631 98.1596 110.39C102.294 108.283 106.02 105.479 109.177 102.112C111.066 100.098 114.172 99.5766 116.406 101.2C118.64 102.823 119.153 105.969 117.315 108.03C113.194 112.65 108.241 116.476 102.7 119.3C97.1603 122.122 91.1568 123.88 85 124.499H80C77.2386 124.499 75 122.26 75 119.499V85.7494C75 82.988 72.7614 80.7494 70 80.7494H60C57.2386 80.7494 55 78.5108 55 75.7494C55 72.988 57.2386 70.7494 60 70.7494H70Z" fill="#24292F" stroke="#24292F" stroke-width="2"/>
</svg>
